<svg xmlns="http://www.w3.org/2000/svg" width="64" height="64" viewBox="0 0 64 64"
 fill="none" color="#2563EB" stroke="currentColor" stroke-width="2.15"
 stroke-linecap="round" stroke-linejoin="round" shape-rendering="geometricPrecision"
 role="img" aria-labelledby="title desc">
<title id="title">Double folder box, closed</title>
<desc id="desc">Blue symbolic duotone variant. Two symbolic isometric boxes with complete top faces.</desc>
<g opacity=".92">
<path d="M22 5 38 17 22 29 6 17Z" fill="currentColor" fill-opacity=".09"/>
<path d="M6 17 22 29 22 44.5 6 32.5Z" fill="currentColor" fill-opacity=".05"/>
<path d="M22 29 38 17 38 32.5 22 44.5Z" fill="currentColor" fill-opacity=".12"/>
<path d="M22 5 38 17 22 29 6 17Z"/>
<path d="M6 17V32.5L22 44.5 38 32.5V17"/>
<path d="M22 29V44.5"/>
</g>
<g>
<path d="M42 19.5 58 31.5 42 43.5 26 31.5Z" fill="currentColor" fill-opacity=".10"/>
<path d="M26 31.5 42 43.5 42 59 26 47Z" fill="currentColor" fill-opacity=".06"/>
<path d="M42 43.5 58 31.5 58 47 42 59Z" fill="currentColor" fill-opacity=".14"/>
<path d="M42 19.5 58 31.5 42 43.5 26 31.5Z"/>
<path d="M26 31.5V47L42 59 58 47V31.5"/>
<path d="M42 43.5V59"/>
</g>
</svg>