<svg xmlns="http://www.w3.org/2000/svg" fill="none" viewBox="0 0 24 24" height="24" width="24">
  <path fill="#000000" d="M13.9521 0.211914C19.6406 1.08719 23.9999 6.10738 24 12c-0.0001 6.6521 -5.3479 11.9999 -12 12C6.09267 23.9999 1.19425 19.6289 0.214844 13.9707c-0.077825 -0.4497 0.159063 -0.8947 0.575195 -1.082 0.416061 -0.1872 0.906391 -0.0692 1.191411 0.2871C3.38605 14.9311 5.59503 15.9999 8 16c4.4475 -0.0001 7.9999 -3.5525 8 -8 -0.0001 -2.36685 -1.1395 -4.5096 -2.8662 -6.05469 -0.3298 -0.29503 -0.427 -0.77172 -0.2383 -1.171872 0.1891 -0.400234 0.6192 -0.628801 1.0566 -0.561524M10.9004 7.59961 13.5 8.5l-2.5996 0.90039L10 12l-0.90039 -2.59961L6.5 8.5l2.59961 -0.90039L10 5zM5.09961 2.90039 8 4 5.09961 5.09961 4 8 2.90039 5.09961 0 4l2.90039 -1.09961L4 0z" stroke-width="1"></path>
</svg>