<svg xmlns="http://www.w3.org/2000/svg" width="64" height="64" viewBox="0 0 64 64" fill="none" shape-rendering="geometricPrecision" role="img" aria-labelledby="title desc">
  <title>Emerald Entity icon</title>
  <desc id="desc">The original lighter emerald green single-box variant used for the closed state.</desc>
  <defs>
    <linearGradient id="green-single-closed-top" gradientUnits="userSpaceOnUse" x1="8" y1="4" x2="55" y2="40">
      <stop offset="0%" stop-color="#F3FFF9"/><stop offset="34%" stop-color="#C8F1DD"/><stop offset="72%" stop-color="#96DCBB"/><stop offset="100%" stop-color="#66C49A"/>
    </linearGradient>
    <linearGradient id="green-single-closed-left" gradientUnits="userSpaceOnUse" x1="7" y1="14" x2="38" y2="58">
      <stop offset="0%" stop-color="#8DD6B5"/><stop offset="58%" stop-color="#4FB98A"/><stop offset="100%" stop-color="#238F66"/>
    </linearGradient>
    <linearGradient id="green-single-closed-right" gradientUnits="userSpaceOnUse" x1="28" y1="18" x2="58" y2="59">
      <stop offset="0%" stop-color="#217C5C"/><stop offset="54%" stop-color="#0E5F43"/><stop offset="100%" stop-color="#07452F"/>
    </linearGradient>
    <linearGradient id="green-single-closed-rim-light" gradientUnits="userSpaceOnUse" x1="12" y1="7" x2="47" y2="34">
      <stop offset="0%" stop-color="#F3FFF9"/><stop offset="52%" stop-color="#C8F1DD"/><stop offset="100%" stop-color="#96DCBB"/>
    </linearGradient>
    <linearGradient id="green-single-closed-rim-left" gradientUnits="userSpaceOnUse" x1="14" y1="18" x2="35" y2="35">
      <stop offset="0%" stop-color="#8DD6B5"/><stop offset="100%" stop-color="#4FB98A"/>
    </linearGradient>
    <linearGradient id="green-single-closed-rim-right" gradientUnits="userSpaceOnUse" x1="31" y1="17" x2="50" y2="35">
      <stop offset="0%" stop-color="#217C5C"/><stop offset="100%" stop-color="#0E5F43"/>
    </linearGradient>
  </defs>
  <g>
    <polygon points="14.00,21.00 32.00,34.50 32.00,52.00 14.00,38.50" fill="url(#green-single-closed-left)"/>
    <polygon points="32.00,34.50 50.00,21.00 50.00,38.50 32.00,52.00" fill="url(#green-single-closed-right)"/>
    <path d="M32.00 34.50V52.00" stroke="#083826" stroke-opacity="0.12" stroke-width="0.65"/>
    <path d="M14.00 21.00V38.50" stroke="#FFFFFF" stroke-opacity="0.24" stroke-width="0.7"/>
    <polygon points="32.00,7.50 50.00,21.00 32.00,34.50 14.00,21.00" fill="url(#green-single-closed-top)"/>
    <polygon points="32.00,8.45 48.74,21.00 32.00,33.55 15.26,21.00" fill="#FFFFFF" opacity="0.10"/>
    <path d="M32.00 7.50L14.00 21.00" stroke="#FFFFFF" stroke-opacity="0.30" stroke-width="0.8" stroke-linecap="round"/>
    <path d="M32.00 7.50L50.00 21.00" stroke="#FFFFFF" stroke-opacity="0.16" stroke-width="0.65" stroke-linecap="round"/>
  </g>
</svg>
