<svg xmlns="http://www.w3.org/2000/svg" width="64" height="64" viewBox="0 0 64 64"
 fill="none" shape-rendering="geometricPrecision" role="img">
<defs>
<linearGradient id="top" gradientUnits="userSpaceOnUse" x1="12" y1="10" x2="52" y2="50">
<stop offset="0%" stop-color="#91C7EF"/><stop offset="58%" stop-color="#62A4DD"/><stop offset="100%" stop-color="#3E84C5"/>
</linearGradient>
<linearGradient id="left" gradientUnits="userSpaceOnUse" x1="12" y1="26" x2="36" y2="52">
<stop offset="0%" stop-color="#5C9FD7"/><stop offset="100%" stop-color="#347FBE"/>
</linearGradient>
<linearGradient id="right" gradientUnits="userSpaceOnUse" x1="30" y1="26" x2="52" y2="52">
<stop offset="0%" stop-color="#2C67B8"/><stop offset="100%" stop-color="#0A409F"/>
</linearGradient>
<linearGradient id="rear" gradientUnits="userSpaceOnUse" x1="10" y1="10" x2="52" y2="46">
<stop offset="0%" stop-color="#C4E1F7"/><stop offset="100%" stop-color="#6FA8D5"/>
</linearGradient>
</defs><title>Triad</title><g opacity="0.76"><polygon points="24,16.4 33.5,23.5 24,30.6 14.5,23.5" fill="url(#rear)"/><polygon points="14.5,23.5 24,30.6 24,32.800000000000004 14.5,25.7" fill="url(#left)"/><polygon points="24,30.6 33.5,23.5 33.5,25.7 24,32.800000000000004" fill="url(#right)"/><polygon points="24,17.2 32.3,23.5 24,29.8 15.7,23.5" fill="#FFFFFF" opacity=".10"/><path d="M24 16.4L14.5 23.5" stroke="#FFFFFF" stroke-opacity=".28" stroke-width=".75" stroke-linecap="round"/><path d="M24 16.4L33.5 23.5" stroke="#FFFFFF" stroke-opacity=".15" stroke-width=".60" stroke-linecap="round"/></g><g opacity="0.76"><polygon points="40,16.4 49.5,23.5 40,30.6 30.5,23.5" fill="url(#rear)"/><polygon points="30.5,23.5 40,30.6 40,32.800000000000004 30.5,25.7" fill="url(#left)"/><polygon points="40,30.6 49.5,23.5 49.5,25.7 40,32.800000000000004" fill="url(#right)"/><polygon points="40,17.2 48.3,23.5 40,29.8 31.7,23.5" fill="#FFFFFF" opacity=".10"/><path d="M40 16.4L30.5 23.5" stroke="#FFFFFF" stroke-opacity=".28" stroke-width=".75" stroke-linecap="round"/><path d="M40 16.4L49.5 23.5" stroke="#FFFFFF" stroke-opacity=".15" stroke-width=".60" stroke-linecap="round"/></g><g opacity="1"><polygon points="32,30.1 42.5,38 32,45.9 21.5,38" fill="url(#top)"/><polygon points="21.5,38 32,45.9 32,48.3 21.5,40.4" fill="url(#left)"/><polygon points="32,45.9 42.5,38 42.5,40.4 32,48.3" fill="url(#right)"/><polygon points="32,30.900000000000002 41.3,38 32,45.1 22.7,38" fill="#FFFFFF" opacity=".10"/><path d="M32 30.1L21.5 38" stroke="#FFFFFF" stroke-opacity=".28" stroke-width=".75" stroke-linecap="round"/><path d="M32 30.1L42.5 38" stroke="#FFFFFF" stroke-opacity=".15" stroke-width=".60" stroke-linecap="round"/></g></svg>