<svg xmlns="http://www.w3.org/2000/svg" width="64" height="64" viewBox="0 0 64 64"
 fill="none" shape-rendering="geometricPrecision" role="img" aria-labelledby="title desc">
  <defs>
    <linearGradient id="top" gradientUnits="userSpaceOnUse" x1="15" y1="15" x2="50" y2="45">
      <stop offset="0%" stop-color="#F2A1CA"/>
      <stop offset="58%" stop-color="#DC6FA9"/>
      <stop offset="100%" stop-color="#B84582"/>
    </linearGradient>
    <linearGradient id="left" gradientUnits="userSpaceOnUse" x1="14" y1="28" x2="34" y2="49">
      <stop offset="0%" stop-color="#D66F9F"/>
      <stop offset="100%" stop-color="#B84378"/>
    </linearGradient>
    <linearGradient id="right" gradientUnits="userSpaceOnUse" x1="31" y1="28" x2="50" y2="49">
      <stop offset="0%" stop-color="#B53A79"/>
      <stop offset="100%" stop-color="#8E175A"/>
    </linearGradient>
    <linearGradient id="rear" gradientUnits="userSpaceOnUse" x1="16" y1="12" x2="47" y2="38">
      <stop offset="0%" stop-color="#BCDDF6"/>
      <stop offset="100%" stop-color="#6DA9DB"/>
    </linearGradient>
  </defs>
  <g id="scaled-element-heavy-b" transform="translate(5.120 5.120) scale(0.8400)">
  <title>Pink element array icon</title>
  <desc id="desc">A simple pink gradient diamond tile representing a discrete property.</desc>
  
  <g opacity="1.0">
    <polygon points="32,16.0 50,29.5 32,43.0 14,29.5"
             fill="url(#top)"/>
    <polygon points="14,29.5 32,43.0 32,47.0 14,33.5"
             fill="url(#left)"/>
    <polygon points="32,43.0 50,29.5 50,33.5 32,47.0"
             fill="url(#right)"/>
    <polygon points="32,16.8 48.8,29.5 32,42.2 15.2,29.5"
             fill="#FFFFFF" opacity=".10"/>
    <path d="M32 16.0L14 29.5" stroke="#FFFFFF" stroke-opacity=".28" stroke-width=".75" stroke-linecap="round"/>
    <path d="M32 16.0L50 29.5" stroke="#FFFFFF" stroke-opacity=".15" stroke-width=".60" stroke-linecap="round"/>
  </g>

  </g><!--scaled-element-heavy-b-->

  <g id="array-brackets-heavy-b" fill="none" stroke="#681244" stroke-width="4.6"
     stroke-linecap="round" stroke-linejoin="round" opacity="1">
    <path d="M13.6 7.8H7.6V56.2H13.6"/>
    <path d="M50.4 7.8H56.4V56.2H50.4"/>
  </g>
  <g id="array-bracket-highlights-heavy-b" fill="none" stroke="#FFFFFF" stroke-width=".75"
     stroke-linecap="round" stroke-linejoin="round" opacity=".25">
    <path d="M13.6 7.8H7.6V56.2H13.6"/>
    <path d="M50.4 7.8H56.4V56.2H50.4"/>
  </g>

</svg>