<svg xmlns="http://www.w3.org/2000/svg" width="64" height="64" viewBox="0 0 64 64" fill="none" shape-rendering="geometricPrecision" role="img" aria-labelledby="title desc">
  <title>Pink Entity array icon</title>
  <desc id="desc">The original lighter pink single-box variant used for the closed state.</desc>
  <defs>
    <linearGradient id="pink-single-closed-top" gradientUnits="userSpaceOnUse" x1="8" y1="4" x2="55" y2="40">
      <stop offset="0%" stop-color="#FFF8FC"/><stop offset="34%" stop-color="#FFD9EE"/><stop offset="72%" stop-color="#F7A8D2"/><stop offset="100%" stop-color="#E57FB5"/>
    </linearGradient>
    <linearGradient id="pink-single-closed-left" gradientUnits="userSpaceOnUse" x1="7" y1="14" x2="38" y2="58">
      <stop offset="0%" stop-color="#F2A1CA"/><stop offset="58%" stop-color="#DC6FA9"/><stop offset="100%" stop-color="#B84582"/>
    </linearGradient>
    <linearGradient id="pink-single-closed-right" gradientUnits="userSpaceOnUse" x1="28" y1="18" x2="58" y2="59">
      <stop offset="0%" stop-color="#B53A79"/><stop offset="54%" stop-color="#8E175A"/><stop offset="100%" stop-color="#65063D"/>
    </linearGradient>
    <linearGradient id="pink-single-closed-rim-light" gradientUnits="userSpaceOnUse" x1="12" y1="7" x2="47" y2="34">
      <stop offset="0%" stop-color="#FFF8FC"/><stop offset="52%" stop-color="#FFD9EE"/><stop offset="100%" stop-color="#F7A8D2"/>
    </linearGradient>
    <linearGradient id="pink-single-closed-rim-left" gradientUnits="userSpaceOnUse" x1="14" y1="18" x2="35" y2="35">
      <stop offset="0%" stop-color="#F2A1CA"/><stop offset="100%" stop-color="#DC6FA9"/>
    </linearGradient>
    <linearGradient id="pink-single-closed-rim-right" gradientUnits="userSpaceOnUse" x1="31" y1="17" x2="50" y2="35">
      <stop offset="0%" stop-color="#B53A79"/><stop offset="100%" stop-color="#8E175A"/>
    </linearGradient>
  </defs>
  <g>
    <polygon points="14.00,21.00 32.00,34.50 32.00,52.00 14.00,38.50" fill="url(#pink-single-closed-left)"/>
    <polygon points="32.00,34.50 50.00,21.00 50.00,38.50 32.00,52.00" fill="url(#pink-single-closed-right)"/>
    <path d="M32.00 34.50V52.00" stroke="#51002F" stroke-opacity="0.12" stroke-width="0.65"/>
    <path d="M14.00 21.00V38.50" stroke="#FFFFFF" stroke-opacity="0.24" stroke-width="0.7"/>
    <polygon points="32.00,7.50 50.00,21.00 32.00,34.50 14.00,21.00" fill="url(#pink-single-closed-top)"/>
    <polygon points="32.00,8.45 48.74,21.00 32.00,33.55 15.26,21.00" fill="#FFFFFF" opacity="0.10"/>
    <path d="M32.00 7.50L14.00 21.00" stroke="#FFFFFF" stroke-opacity="0.30" stroke-width="0.8" stroke-linecap="round"/>
    <path d="M32.00 7.50L50.00 21.00" stroke="#FFFFFF" stroke-opacity="0.16" stroke-width="0.65" stroke-linecap="round"/>
  </g>

  <g id="array-brackets" fill="none" stroke="#8E175A" stroke-width="2.25"
     stroke-linecap="round" stroke-linejoin="round" opacity=".92">
    <path d="M11.5 10.5H6.5V53.5H11.5"/>
    <path d="M52.5 10.5H57.5V53.5H52.5"/>
  </g>
  <g id="array-bracket-highlights" fill="none" stroke="#FFFFFF" stroke-width=".65"
     stroke-linecap="round" stroke-linejoin="round" opacity=".42">
    <path d="M11.5 10.5H6.5V53.5H11.5"/>
    <path d="M52.5 10.5H57.5V53.5H52.5"/>
  </g>

</svg>
