<?xml version="1.0" encoding="utf-8"?>
<svg height="16px" viewBox="0 0 16 16" width="16px" xmlns="http://www.w3.org/2000/svg">
  <path d="M 1 14.21 C 1 13.944 1.105 13.69 1.293 13.503 L 7.293 7.503 C 7.684 7.112 8.316 7.112 8.707 7.503 L 14.707 13.503 C 14.895 13.69 15 13.944 15 14.21 C 15 14.476 14.895 14.73 14.707 14.917 C 14.316 15.308 13.684 15.308 13.293 14.917 L 8 9.624 L 2.707 14.917 C 2.316 15.308 1.684 15.308 1.293 14.917 C 1.105 14.73 1 14.476 1 14.21 Z M 1 14.21" fill="#2e3436"/>
  <path d="M 1 8.065 C 1 7.8 1.105 7.546 1.293 7.358 L 7.293 1.358 C 7.683 0.968 8.316 0.968 8.707 1.358 L 14.707 7.358 C 14.894 7.546 15 7.8 15 8.065 C 15 8.331 14.894 8.585 14.707 8.772 C 14.316 9.163 13.683 9.163 13.293 8.772 L 8 3.48 L 2.707 8.772 C 2.316 9.163 1.683 9.163 1.293 8.772 C 1.105 8.585 1 8.331 1 8.065 Z M 1 8.065" fill="#2e3436" style="stroke-width: 1px;"/>
</svg>