<?xml version="1.0" encoding="utf-8"?>
<svg height="16px" viewBox="0 0 16 16" width="16px" xmlns="http://www.w3.org/2000/svg">
  <path d="M 1 2.066 C 1 2.332 1.105 2.586 1.293 2.773 L 7.293 8.773 C 7.684 9.164 8.316 9.164 8.707 8.773 L 14.707 2.773 C 14.895 2.586 15 2.332 15 2.066 C 15 1.8 14.895 1.546 14.707 1.359 C 14.316 0.968 13.684 0.968 13.293 1.359 L 8 6.652 L 2.707 1.359 C 2.316 0.968 1.684 0.968 1.293 1.359 C 1.105 1.546 1 1.8 1 2.066 Z M 1 2.066" fill="#2e3436" style=""/>
  <path d="M 1 8.211 C 1 8.476 1.105 8.73 1.293 8.918 L 7.293 14.918 C 7.683 15.308 8.316 15.308 8.707 14.918 L 14.707 8.918 C 14.894 8.73 15 8.476 15 8.211 C 15 7.945 14.894 7.691 14.707 7.504 C 14.316 7.113 13.683 7.113 13.293 7.504 L 8 12.796 L 2.707 7.504 C 2.316 7.113 1.683 7.113 1.293 7.504 C 1.105 7.691 1 7.945 1 8.211 Z M 1 8.211" fill="#2e3436" style="stroke-width: 1px;"/>
</svg>