<?xml version="1.0" encoding="utf-8"?>
<svg height="16px" viewBox="0 0 16 16" width="16px" xmlns="http://www.w3.org/2000/svg" xmlns:bx="https://boxy-svg.com">
  <defs>
    <bx:guide x="-0.119" y="7.871" angle="90"/>
    <bx:guide x="4.035" y="12.144" angle="90"/>
  </defs>
  <path d="M 1 8.061 C 1 7.796 1.105 7.542 1.293 7.354 L 7.293 1.354 C 7.683 0.964 8.316 0.964 8.707 1.354 L 14.707 7.354 C 14.894 7.542 15 7.796 15 8.061 C 15 8.327 14.894 8.581 14.707 8.768 C 14.316 9.159 13.683 9.159 13.293 8.768 L 8 3.476 L 2.707 8.768 C 2.316 9.159 1.683 9.159 1.293 8.768 C 1.105 8.581 1 8.327 1 8.061 Z M 1 8.061" style="stroke-width: 1px; fill: rgb(53, 53, 53);"/>
  <path style="fill: none; stroke-linecap: round; stroke-width: 1.7px; stroke: rgb(53, 53, 53);" d="M 1.764 14.159 L 14.236 14.156"/>
</svg>