<?xml version="1.0" standalone="no"?>
<!DOCTYPE svg PUBLIC "-//W3C//DTD SVG 20010904//EN"
 "http://www.w3.org/TR/2001/REC-SVG-20010904/DTD/svg10.dtd">
<svg version="1.0" xmlns="http://www.w3.org/2000/svg"
 width="200.000000pt" height="200.000000pt" viewBox="0 0 200.000000 200.000000"
 preserveAspectRatio="xMidYMid meet">

<g transform="translate(0.000000,200.000000) scale(0.100000,-0.100000)"
fill="#000000" stroke="none">
<path d="M288 1660 c-43 -13 -84 -47 -102 -84 -14 -30 -16 -97 -16 -576 0
-609 -2 -588 73 -638 l41 -27 716 0 716 0 41 27 c75 50 73 29 73 638 0 609 2
588 -73 638 l-41 27 -700 2 c-386 1 -713 -2 -728 -7z m234 -347 c17 -15 18
-38 18 -311 0 -261 -2 -298 -17 -314 -20 -22 -61 -23 -85 -1 -17 15 -18 38
-18 311 0 261 2 298 17 314 20 22 61 23 85 1z m436 2 c49 -21 81 -52 103 -100
16 -34 19 -66 19 -216 0 -165 -1 -179 -23 -220 -78 -147 -300 -144 -368 6 -16
34 -19 67 -19 213 0 184 7 221 53 271 52 56 159 77 235 46z m500 0 c49 -21 81
-52 103 -100 16 -34 19 -66 19 -216 0 -165 -1 -179 -23 -220 -78 -147 -300
-144 -368 6 -16 34 -19 67 -19 213 0 184 7 221 53 271 52 56 159 77 235 46z"/>
<path d="M819 1181 l-29 -29 0 -152 0 -152 29 -29 c18 -17 40 -29 56 -29 16 0
38 12 56 29 l29 29 0 152 0 152 -29 29 c-38 38 -74 38 -112 0z"/>
<path d="M1319 1181 l-29 -29 0 -152 0 -152 29 -29 c18 -17 40 -29 56 -29 16
0 38 12 56 29 l29 29 0 152 0 152 -29 29 c-38 38 -74 38 -112 0z"/>
</g>
</svg>
