<svg xmlns="http://www.w3.org/2000/svg" fill="none" viewBox="0 0 24 24" height="24" width="24">
  <path fill="#000000" d="M13 24h-2v-4h2zm-5.99316 -5.5928L4.20703 21.207l-1.41406 -1.414 2.7998 -2.7998zM21.207 19.793l-1.414 1.414 -2.7998 -2.7998 1.414 -1.414zM12 6c3.3137 0 6 2.68629 6 6 0 3.3137 -2.6863 6 -6 6 -3.31371 0 -6 -2.6863 -6 -6 0 -3.31371 2.68629 -6 6 -6m-8 7H0v-2h4zm20 0h-4v-2h4zM7.00684 5.59277 5.59277 7.00684l-2.7998 -2.79981 1.41406 -1.41406zM21.207 4.20703l-2.7998 2.79981 -1.414 -1.41407 2.7998 -2.7998zM13 4h-2V0h2z" stroke-width="1"></path>
</svg>