<?xml version="1.0" standalone="no"?>
<!DOCTYPE svg PUBLIC "-//W3C//DTD SVG 20010904//EN"
 "http://www.w3.org/TR/2001/REC-SVG-20010904/DTD/svg10.dtd">
<svg version="1.0" xmlns="http://www.w3.org/2000/svg"
 width="352.000000pt" height="352.000000pt" viewBox="0 0 352.000000 352.000000"
 preserveAspectRatio="xMidYMid meet">

<g transform="translate(0.000000,352.000000) scale(0.100000,-0.100000)"
fill="#000000" stroke="none">
<path d="M2562 3047 l-172 -172 265 -265 265 -265 172 173 173 172 -265 265
-265 265 -173 -173z"/>
<path d="M360 1545 l0 -1235 1230 0 1230 0 0 615 0 615 -175 0 -175 0 0 -440
0 -440 -880 0 -880 0 0 885 0 885 440 0 440 0 0 175 0 175 -615 0 -615 0 0
-1235z"/>
<path d="M1755 2238 c-242 -244 -477 -481 -523 -528 l-82 -85 -43 -303 c-43
-298 -43 -302 -23 -302 12 0 149 18 306 40 l285 40 527 528 528 527 -262 262
c-145 145 -265 263 -268 263 -3 0 -203 -199 -445 -442z"/>
</g>
</svg>
