<?xml version="1.0" standalone="no"?>
<!DOCTYPE svg PUBLIC "-//W3C//DTD SVG 20010904//EN"
 "http://www.w3.org/TR/2001/REC-SVG-20010904/DTD/svg10.dtd">
<svg version="1.0" xmlns="http://www.w3.org/2000/svg"
 width="256.000000pt" height="256.000000pt" viewBox="0 0 256.000000 256.000000"
 preserveAspectRatio="xMidYMid meet">

<g transform="translate(0.000000,256.000000) scale(0.100000,-0.100000)"
fill="#000000" stroke="none">
<path d="M424 2549 c-94 -27 -184 -125 -204 -222 -7 -36 -10 -365 -8 -1077 l3
-1025 28 -57 c30 -61 74 -105 140 -140 l42 -23 855 0 855 0 42 23 c66 35 110
79 140 140 l28 57 0 1055 0 1055 -28 57 c-30 61 -74 105 -140 140 l-42 23
-840 2 c-488 1 -853 -2 -871 -8z m1693 -169 c18 -10 40 -31 50 -47 17 -26 18
-81 18 -1053 0 -972 -1 -1027 -18 -1053 -10 -16 -32 -37 -50 -47 -31 -19 -57
-20 -837 -20 -780 0 -806 1 -837 20 -18 10 -40 31 -50 47 -17 26 -18 81 -18
1053 0 972 1 1027 18 1053 10 16 32 37 50 47 31 19 57 20 837 20 780 0 806 -1
837 -20z"/>
<path d="M580 2017 c-46 -23 -50 -45 -50 -310 0 -298 5 -317 89 -317 16 0 37
10 49 23 21 23 22 30 22 289 0 147 -3 274 -6 283 -6 15 -54 45 -71 45 -4 0
-19 -6 -33 -13z"/>
<path d="M1007 2015 c-50 -17 -85 -50 -108 -100 -25 -54 -28 -355 -4 -412 37
-87 88 -113 225 -113 137 0 188 26 225 113 24 57 21 357 -4 412 -22 50 -69 91
-119 105 -52 14 -170 12 -215 -5z m182 -159 c8 -9 11 -60 9 -157 l-3 -144 -75
0 -75 0 -3 144 c-2 97 1 148 9 157 7 9 32 14 69 14 37 0 62 -5 69 -14z"/>
<path d="M1688 2021 c-51 -17 -94 -50 -116 -89 -20 -37 -22 -52 -22 -220 0
-192 5 -220 48 -266 42 -45 80 -56 193 -56 122 0 166 19 207 90 27 44 27 48
27 231 0 184 0 186 -27 226 -44 67 -87 87 -193 90 -49 1 -102 -2 -117 -6z
m170 -163 c14 -14 17 -275 3 -296 -5 -9 -28 -12 -77 -10 l-69 3 -3 149 c-2
113 1 151 10 158 20 12 123 9 136 -4z"/>
<path d="M625 1146 c-23 -14 -51 -43 -65 -68 -24 -42 -25 -49 -25 -228 0 -177
1 -187 24 -223 13 -21 42 -50 64 -65 38 -25 48 -27 146 -27 97 0 110 2 151 27
27 15 54 42 68 66 20 37 22 52 22 220 0 192 -5 220 -48 266 -43 45 -80 56
-194 56 -91 0 -108 -3 -143 -24z m223 -290 c2 -113 -1 -151 -10 -158 -20 -12
-123 -9 -136 4 -13 13 -18 262 -6 293 5 13 19 15 78 13 l71 -3 3 -149z"/>
<path d="M1305 1153 c-92 -48 -105 -85 -105 -298 0 -144 3 -176 19 -210 36
-80 103 -115 221 -115 118 0 185 35 221 115 16 34 19 67 19 208 0 212 -14 253
-102 298 -49 25 -227 27 -273 2z m213 -292 c2 -97 -1 -148 -9 -157 -14 -18
-120 -19 -137 -2 -13 13 -18 289 -5 302 4 4 39 5 78 4 l70 -3 3 -144z"/>
<path d="M1892 1147 c-21 -23 -22 -30 -22 -291 0 -152 4 -275 10 -285 16 -31
64 -45 96 -29 50 24 54 42 54 311 0 298 -5 317 -89 317 -16 0 -37 -10 -49 -23z"/>
</g>
</svg>
