<?xml version="1.0" standalone="no"?>
<!DOCTYPE svg PUBLIC "-//W3C//DTD SVG 20010904//EN"
 "http://www.w3.org/TR/2001/REC-SVG-20010904/DTD/svg10.dtd">
<svg version="1.0" xmlns="http://www.w3.org/2000/svg"
 width="733.000000pt" height="735.000000pt" viewBox="0 0 733.000000 735.000000"
 preserveAspectRatio="xMidYMid meet">

<g transform="translate(0.000000,735.000000) scale(0.100000,-0.100000)"
fill="#000000" stroke="none">
<path d="M592 7230 c-236 -62 -422 -249 -482 -486 -20 -76 -20 -124 -20 -3069
0 -2945 0 -2993 20 -3069 61 -239 247 -425 486 -486 76 -20 124 -20 3069 -20
2945 0 2993 0 3069 20 239 61 425 247 486 486 20 76 20 124 20 3069 0 2945 0
2993 -20 3069 -61 239 -247 425 -486 486 -76 20 -123 20 -3073 19 -2915 0
-2998 -1 -3069 -19z m6073 -449 c22 -10 52 -31 67 -47 60 -64 58 -44 58 -744
l0 -640 -3125 0 -3125 0 0 640 c0 700 -2 680 58 744 15 16 45 37 67 47 39 18
140 19 3000 19 2860 0 2961 -1 3000 -19z m125 -3973 c0 -2016 -1 -2094 -19
-2133 -23 -49 -64 -89 -113 -109 -34 -14 -344 -16 -2993 -16 -2649 0 -2959 2
-2993 16 -49 20 -90 60 -113 109 -18 39 -19 117 -19 2133 l0 2092 3125 0 3125
0 0 -2092z"/>
<path d="M1100 6216 c-55 -28 -106 -100 -115 -160 -20 -133 87 -256 223 -256
182 0 287 218 173 360 -64 80 -189 105 -281 56z"/>
<path d="M1895 6221 c-44 -19 -100 -78 -117 -120 -17 -45 -12 -134 11 -178
108 -213 422 -132 421 108 -1 153 -171 256 -315 190z"/>
<path d="M2675 6221 c-79 -37 -125 -111 -125 -203 0 -188 222 -287 367 -163
122 104 89 307 -59 369 -50 21 -134 20 -183 -3z"/>
<path d="M1715 3623 c-248 -53 -452 -250 -515 -499 -18 -69 -20 -111 -20 -399
0 -288 2 -330 20 -399 64 -252 269 -448 522 -500 159 -33 297 -14 448 60 77
39 109 62 175 128 89 89 138 171 177 296 22 72 23 86 23 415 0 329 -1 343 -23
415 -39 125 -88 207 -177 296 -66 66 -98 89 -175 128 -151 74 -297 93 -455 59z
m271 -469 c30 -18 60 -48 79 -78 l30 -49 0 -302 0 -302 -30 -49 c-83 -134
-268 -154 -373 -40 -64 69 -67 87 -67 391 0 301 3 321 64 388 52 58 101 78
182 75 53 -3 76 -10 115 -34z"/>
<path d="M3142 3627 c-49 -19 -99 -63 -125 -110 l-22 -42 0 -750 0 -750 22
-42 c86 -160 312 -162 395 -4 l28 53 0 743 0 743 -28 53 c-37 71 -100 112
-180 116 -31 1 -72 -3 -90 -10z"/>
<path d="M4451 3630 c-259 -55 -449 -224 -533 -475 -22 -68 -23 -79 -23 -430
0 -351 1 -362 23 -430 76 -227 238 -387 462 -457 62 -19 96 -23 200 -22 110 0
135 3 205 28 210 73 368 231 441 441 28 80 28 81 32 392 2 199 0 338 -7 384
-39 249 -222 462 -466 545 -89 29 -252 41 -334 24z m219 -461 c60 -27 88 -54
116 -114 23 -49 24 -57 24 -330 0 -273 -1 -281 -24 -330 -43 -94 -130 -142
-238 -132 -72 6 -126 39 -173 106 l-30 43 -3 300 c-3 289 -2 302 18 344 25 50
90 110 135 123 53 16 128 12 175 -10z"/>
<path d="M5829 3613 c-35 -19 -64 -43 -84 -71 l-30 -44 0 -773 0 -773 30 -44
c38 -55 119 -98 185 -98 66 0 147 43 185 98 l30 44 0 773 0 773 -30 43 c-19
27 -50 54 -84 71 -71 37 -129 37 -202 1z"/>
</g>
</svg>
