<?xml version="1.0" standalone="no"?>
<!DOCTYPE svg PUBLIC "-//W3C//DTD SVG 20010904//EN"
 "http://www.w3.org/TR/2001/REC-SVG-20010904/DTD/svg10.dtd">
<svg version="1.0" xmlns="http://www.w3.org/2000/svg"
 width="735.000000pt" height="735.000000pt" viewBox="0 0 735.000000 735.000000"
 preserveAspectRatio="xMidYMid meet">

<g transform="translate(0.000000,735.000000) scale(0.100000,-0.100000)"
fill="#000000" stroke="none">
<path d="M650 7263 c-52 -8 -157 -46 -215 -76 -86 -45 -221 -182 -268 -274
-77 -149 -77 -144 -77 -885 l0 -658 3575 0 3575 0 0 653 c0 734 0 732 -72 877
-33 68 -59 102 -127 170 -89 89 -153 129 -271 172 l-65 23 -3015 1 c-1658 1
-3026 -1 -3040 -3z m675 -752 c175 -77 210 -324 65 -454 -59 -54 -102 -70
-185 -71 -151 0 -262 104 -273 257 -15 211 196 355 393 268z m1015 -6 c157
-80 199 -289 83 -424 -150 -175 -436 -101 -483 125 -47 225 192 404 400 299z
m1007 -1 c164 -80 199 -307 68 -439 -142 -142 -395 -85 -459 102 -82 239 162
449 391 337z"/>
<path d="M90 2807 c0 -2071 0 -2115 20 -2191 49 -191 177 -349 355 -437 152
-75 -114 -69 3232 -67 l3008 3 65 23 c117 43 182 83 271 172 98 97 148 183
179 306 20 76 20 120 20 2191 l0 2113 -3575 0 -3575 0 0 -2113z m1915 608 c39
-8 113 -36 165 -61 199 -99 338 -293 369 -518 14 -101 14 -542 0 -643 -22
-157 -106 -316 -226 -422 -72 -64 -215 -137 -308 -156 -308 -64 -617 88 -756
371 -63 129 -69 175 -69 535 0 282 2 324 20 393 51 200 188 365 379 453 131
61 281 78 426 48z m1300 -4 c51 -23 93 -65 116 -116 17 -38 19 -83 19 -780 0
-697 -2 -742 -19 -780 -66 -145 -247 -180 -357 -69 -72 71 -69 36 -69 854 l0
735 24 48 c53 108 181 156 286 108z m1484 -17 c173 -57 318 -185 396 -349 68
-142 70 -158 70 -530 0 -372 -2 -388 -70 -530 -77 -162 -219 -287 -394 -349
-78 -27 -98 -30 -211 -31 -104 0 -138 4 -200 23 -115 36 -195 86 -286 176 -90
91 -140 171 -176 286 -22 73 -23 87 -23 425 0 338 1 352 23 425 37 118 85 195
181 291 97 96 181 144 311 179 109 29 264 23 379 -16z m1257 0 c35 -21 56 -44
76 -83 l28 -53 0 -743 0 -743 -28 -53 c-37 -70 -100 -111 -180 -117 -48 -3
-66 1 -112 25 -34 18 -66 45 -85 72 l-30 43 0 773 0 773 30 44 c68 97 200 125
301 62z"/>
<path d="M1749 2952 c-66 -34 -114 -107 -124 -186 -4 -28 -5 -161 -3 -296 3
-273 7 -287 80 -357 120 -115 316 -69 383 90 12 30 15 87 15 314 0 271 -1 279
-24 328 -58 126 -202 172 -327 107z"/>
<path d="M4533 2979 c-57 -10 -93 -31 -135 -77 -60 -66 -63 -86 -63 -387 0
-301 3 -321 64 -388 47 -53 101 -77 174 -77 102 0 198 67 225 159 16 52 16
565 1 612 -37 109 -152 178 -266 158z"/>
</g>
</svg>
