<?xml version="1.0" encoding="utf-8"?>
<svg xmlns="http://www.w3.org/2000/svg" viewBox="0 0 500 500">
  <path d="M 146.054 409.856 Q 123.363 408.966 107.569 404.072 Q 91.774 399.178 81.986 389.835 Q 72.198 380.492 67.749 366.254 Q 63.3 352.017 63.3 331.996 Q 63.3 324.433 63.967 315.979 Q 64.635 307.526 65.08 299.518 Q 65.97 292.844 66.192 287.06 Q 66.414 281.276 66.414 277.717 Q 66.414 258.586 55.292 246.796 Q 44.169 235.005 18.809 227.887 L 18.809 201.637 Q 44.614 195.408 55.514 183.841 Q 66.414 172.273 66.414 152.697 Q 66.414 148.248 65.97 141.796 Q 65.525 135.345 65.08 128.227 Q 64.635 119.773 63.967 111.32 Q 63.3 102.867 63.3 96.193 Q 63.3 75.727 67.749 61.267 Q 72.198 46.808 82.209 37.464 Q 92.219 28.121 108.014 23.45 Q 123.808 18.778 146.499 17.888 L 146.944 45.473 Q 126.033 46.363 114.687 52.814 Q 103.342 59.265 99.116 70.61 Q 94.889 81.956 94.889 97.528 Q 94.889 103.311 95.556 110.875 Q 96.224 118.438 96.668 126.447 Q 97.113 133.565 97.558 140.462 Q 98.003 147.358 98.003 152.252 Q 98.003 170.938 93.777 182.728 Q 89.55 194.518 79.762 201.859 Q 69.974 209.201 51.287 214.539 Q 69.974 219.878 79.762 227.442 Q 89.55 235.005 93.777 247.018 Q 98.003 259.031 98.003 277.717 Q 98.003 282.166 97.558 287.727 Q 97.113 293.289 96.668 299.073 Q 96.224 307.081 95.556 314.645 Q 94.889 322.208 94.889 329.327 Q 94.889 344.899 98.893 356.244 Q 102.897 367.589 114.243 374.263 Q 125.588 380.937 146.499 382.271 Z" transform="matrix(1.243537, 0, 0, 1.2362, -21.926165, -14.501282)" style="fill: rgb(51, 51, 51); paint-order: stroke; text-wrap-mode: nowrap;"/>
  <path d="M 194.399 139.26 Q 178.399 139.26 166.899 130.76 Q 155.399 122.26 149.199 106.16 Q 142.999 90.06 142.999 67.66 Q 142.999 45.06 149.199 29.06 Q 155.399 13.06 166.899 4.56 Q 178.399 -3.94 194.399 -3.94 Q 210.399 -3.94 221.899 4.56 Q 233.399 13.06 239.599 29.06 Q 245.799 45.06 245.799 67.66 Q 245.799 90.06 239.599 106.16 Q 233.399 122.26 221.899 130.76 Q 210.399 139.26 194.399 139.26 Z M 194.399 107.86 Q 199.399 107.86 202.799 104.06 Q 206.199 100.26 207.999 91.46 Q 209.799 82.66 209.799 67.66 Q 209.799 52.46 207.999 43.76 Q 206.199 35.06 202.799 31.26 Q 199.399 27.46 194.399 27.46 Q 189.399 27.46 185.999 31.26 Q 182.599 35.06 180.799 43.76 Q 178.999 52.46 178.999 67.66 Q 178.999 82.66 180.799 91.46 Q 182.599 100.26 185.999 104.06 Q 189.399 107.86 194.399 107.86 Z M 275.399 137.66 Q 267.399 137.66 267.399 125.66 L 267.399 118.26 Q 267.399 106.26 275.399 106.26 L 294.399 106.26 L 294.399 12.86 L 311.799 30.86 L 274.799 36.26 Q 271.199 36.66 269.399 33.56 Q 267.599 30.46 266.999 25.56 Q 266.399 20.66 266.399 16.06 Q 266.399 11.06 267.899 8.76 Q 269.399 6.46 273.599 5.66 L 321.799 -3.14 Q 324.199 -3.14 327.099 -1.44 Q 329.999 0.26 329.999 3.66 L 329.999 106.26 L 348.999 106.26 Q 356.999 106.26 356.999 118.26 L 356.999 125.66 Q 356.999 137.66 348.999 137.66 Z" transform="matrix(1, 0, 0, 1, 1.325797, 99.704071)" style="fill: rgb(51, 51, 51); text-wrap-mode: nowrap;"/>
  <path d="" transform="matrix(1, 0, 0, 1, 1.325797, 99.704071)" style="fill: rgb(51, 51, 51); text-wrap-mode: nowrap;"/>
  <path d="M 159.599 297.66 Q 151.599 297.66 151.599 285.66 L 151.599 278.26 Q 151.599 266.26 159.599 266.26 L 178.599 266.26 L 178.599 172.86 L 195.999 190.86 L 158.999 196.26 Q 155.399 196.66 153.599 193.56 Q 151.799 190.46 151.199 185.56 Q 150.599 180.66 150.599 176.06 Q 150.599 171.06 152.099 168.76 Q 153.599 166.46 157.799 165.66 L 205.999 156.86 Q 208.399 156.86 211.299 158.56 Q 214.199 160.26 214.199 163.66 L 214.199 266.26 L 233.199 266.26 Q 241.199 266.26 241.199 278.26 L 241.199 285.66 Q 241.199 297.66 233.199 297.66 Z M 310.199 299.26 Q 294.199 299.26 282.699 290.76 Q 271.199 282.26 264.999 266.16 Q 258.799 250.06 258.799 227.66 Q 258.799 205.06 264.999 189.06 Q 271.199 173.06 282.699 164.56 Q 294.199 156.06 310.199 156.06 Q 326.199 156.06 337.699 164.56 Q 349.199 173.06 355.399 189.06 Q 361.599 205.06 361.599 227.66 Q 361.599 250.06 355.399 266.16 Q 349.199 282.26 337.699 290.76 Q 326.199 299.26 310.199 299.26 Z M 310.199 267.86 Q 315.199 267.86 318.599 264.06 Q 321.999 260.26 323.799 251.46 Q 325.599 242.66 325.599 227.66 Q 325.599 212.46 323.799 203.76 Q 321.999 195.06 318.599 191.26 Q 315.199 187.46 310.199 187.46 Q 305.199 187.46 301.799 191.26 Q 298.399 195.06 296.599 203.76 Q 294.799 212.46 294.799 227.66 Q 294.799 242.66 296.599 251.46 Q 298.399 260.26 301.799 264.06 Q 305.199 267.86 310.199 267.86 Z" transform="matrix(1, 0, 0, 1, 1.325797, 99.704071)" style="fill: rgb(51, 51, 51); text-wrap-mode: nowrap;"/>
  <path d="M 347.875 489.141 L 347.325 455.041 Q 373.725 453.391 387.475 445.141 Q 401.225 436.891 406.45 422.866 Q 411.675 408.841 411.675 389.591 Q 411.675 380.791 411.125 371.441 Q 410.575 362.091 409.475 352.191 Q 408.925 345.041 408.375 338.166 Q 407.825 331.291 407.825 325.791 Q 407.825 302.691 412.775 287.841 Q 417.725 272.991 430.375 263.641 Q 443.025 254.291 465.025 247.691 Q 443.025 241.091 430.375 232.016 Q 417.725 222.941 412.775 208.366 Q 407.825 193.791 407.825 170.691 Q 407.825 164.641 408.375 156.116 Q 408.925 147.591 409.475 138.791 Q 410.575 128.891 411.125 119.541 Q 411.675 110.191 411.675 103.041 Q 411.675 83.791 406.175 69.766 Q 400.675 55.741 386.925 47.766 Q 373.175 39.791 346.775 38.691 L 347.875 4.591 Q 375.375 5.691 394.9 11.466 Q 414.425 17.241 426.8 28.791 Q 439.175 40.341 444.675 58.216 Q 450.175 76.091 450.175 101.391 Q 450.175 109.641 449.625 120.091 Q 449.075 130.541 447.975 140.991 Q 447.425 149.791 446.875 157.766 Q 446.325 165.741 446.325 171.241 Q 446.325 195.441 459.8 209.741 Q 473.275 224.041 505.175 231.741 L 505.175 264.191 Q 473.825 272.991 460.075 287.566 Q 446.325 302.141 446.325 325.791 Q 446.325 330.191 446.875 337.341 Q 447.425 344.491 447.975 352.741 Q 449.075 362.641 449.625 373.091 Q 450.175 383.541 450.175 392.891 Q 450.175 417.641 444.675 435.241 Q 439.175 452.841 427.075 464.391 Q 414.975 475.941 395.45 481.991 Q 375.925 488.041 347.875 489.141 Z" transform="matrix(1, 0, -0.000097, 1, -6.601782, 2.897895)" style="fill: rgb(51, 51, 51); text-wrap-mode: nowrap;"/>
  <text style="white-space: pre; fill: rgb(51, 51, 51); font-family: &quot;Arial&quot;, sans-serif; font-size: 28px;" x="568.759" y="119.686"> </text>
  <text style="white-space: pre; fill: rgb(51, 51, 51); font-family: &quot;Arial&quot;, sans-serif; font-size: 28px;" x="222.967" y="257.917"> </text>
  <text style="white-space: pre; fill: rgb(51, 51, 51); font-family: &quot;Arial&quot;, sans-serif; font-size: 28px;" x="679.101" y="242.923">Enter your text here</text>
</svg>