<?xml version="1.0" standalone="no"?>
<!DOCTYPE svg PUBLIC "-//W3C//DTD SVG 20010904//EN"
 "http://www.w3.org/TR/2001/REC-SVG-20010904/DTD/svg10.dtd">
<svg version="1.0" xmlns="http://www.w3.org/2000/svg"
 width="350.000000pt" height="350.000000pt" viewBox="0 0 350.000000 350.000000"
 preserveAspectRatio="xMidYMid meet">

<g transform="translate(0.000000,350.000000) scale(0.100000,-0.100000)"
fill="#000000" stroke="none">
<path d="M633 3140 c-67 -41 -63 58 -63 -1392 0 -1285 0 -1314 20 -1345 10
-18 33 -39 49 -48 70 -36 66 -38 568 296 257 172 483 318 501 326 21 8 46 11
64 8 17 -4 246 -151 510 -326 514 -342 509 -340 579 -304 16 9 39 30 49 48 20
31 20 60 20 1340 0 1440 4 1357 -62 1397 -33 20 -47 20 -1118 20 -1059 0
-1086 -1 -1117 -20z m1170 -478 c9 -10 46 -88 82 -175 41 -95 76 -164 90 -175
18 -15 57 -21 191 -31 93 -7 180 -18 194 -24 31 -15 47 -58 34 -94 -5 -16 -67
-77 -147 -146 -121 -104 -137 -122 -137 -149 0 -17 16 -97 35 -179 19 -82 35
-163 35 -179 0 -47 -38 -77 -90 -70 -8 1 -83 42 -165 91 -83 49 -162 89 -176
89 -13 0 -92 -40 -173 -90 -160 -97 -194 -107 -234 -70 -30 28 -28 53 13 229
19 82 35 162 35 179 0 27 -17 45 -140 152 -85 74 -142 131 -146 145 -9 36 3
73 29 87 12 7 102 20 199 29 140 12 182 20 197 34 11 9 50 87 86 173 36 86 73
164 82 174 10 11 30 18 53 18 23 0 43 -7 53 -18z"/>
</g>
</svg>
