<?xml version="1.0" encoding="utf-8"?>
<svg xmlns="http://www.w3.org/2000/svg" viewBox="0 0 16 16" width="16" height="16" fill="#2e3436">
  <path d="M 11.55 15.143 C 11.241 15.143 10.931 15.056 10.655 14.883 L 7.999 13.204 L 5.343 14.883 C 4.763 15.251 4.017 15.226 3.462 14.822 C 2.904 14.421 2.65 13.716 2.823 13.051 L 3.6 10.006 L 1.182 7.999 C 0.652 7.561 0.444 6.843 0.658 6.19 C 0.869 5.536 1.459 5.078 2.145 5.035 L 5.281 4.833 L 6.442 1.913 C 6.697 1.271 7.308 0.857 7.999 0.857 C 8.69 0.857 9.302 1.271 9.558 1.913 L 10.719 4.833 L 13.856 5.035 C 14.543 5.08 15.127 5.533 15.342 6.19 C 15.556 6.844 15.348 7.562 14.818 8.001 L 12.401 10.006 L 13.178 13.051 C 13.35 13.716 13.097 14.419 12.539 14.822 C 12.251 15.03 11.905 15.143 11.55 15.143 Z M 7.565 11.556 L 8.433 11.556 L 10.991 13.174 C 11.08 13.23 11.194 13.228 11.28 13.167 C 11.366 13.105 11.407 12.999 11.383 12.895 L 10.7 9.91 L 10.967 9.084 L 13.295 7.153 C 13.376 7.085 13.408 6.976 13.377 6.875 C 13.345 6.775 13.257 6.703 13.152 6.694 L 10.101 6.42 L 9.399 5.91 C 9.399 5.91 8.649 4.021 8.246 3.047 C 8.206 2.95 8.11 2.887 8.005 2.887 C 7.9 2.888 7.805 2.952 7.765 3.049 L 6.599 5.911 L 5.898 6.421 L 2.878 6.615 C 2.773 6.622 2.682 6.692 2.649 6.792 C 2.615 6.891 2.644 7.001 2.723 7.071 L 5.031 9.086 L 5.299 9.911 L 4.551 12.841 C 4.525 12.944 4.563 13.051 4.647 13.114 C 4.732 13.176 4.846 13.183 4.937 13.129 L 7.565 11.556 Z" style=""/>
</svg>