<?xml version="1.0" standalone="no"?>
<!DOCTYPE svg PUBLIC "-//W3C//DTD SVG 20010904//EN"
 "http://www.w3.org/TR/2001/REC-SVG-20010904/DTD/svg10.dtd">
<svg version="1.0" xmlns="http://www.w3.org/2000/svg"
 width="512.000000pt" height="512.000000pt" viewBox="0 0 512.000000 512.000000"
 preserveAspectRatio="xMidYMid meet">

<g transform="translate(0.000000,512.000000) scale(0.100000,-0.100000)"
fill="#000000" stroke="none">
<path d="M647 4149 c-93 -22 -173 -89 -216 -179 l-26 -55 -3 -1478 -2 -1477
1772 2 1773 3 53 24 c32 14 71 44 100 76 43 47 72 110 325 702 153 358 283
667 289 687 8 26 8 46 0 75 -13 40 -71 101 -97 101 -8 0 -15 6 -15 13 0 8 27
119 60 247 33 128 58 241 55 251 -4 10 -18 28 -32 39 -24 19 -40 20 -313 20
l-287 0 -6 81 c-4 63 -12 95 -36 144 -36 72 -72 107 -151 144 l-55 26 -895 5
-895 5 -50 24 c-36 18 -114 88 -280 252 -172 170 -243 234 -280 251 -49 22
-58 23 -400 25 -192 1 -367 -3 -388 -8z m3839 -1309 l-51 -200 -1590 -2 -1590
-3 -68 -33 c-47 -23 -77 -47 -101 -78 -22 -28 -112 -228 -246 -542 -117 -273
-216 -501 -222 -507 -6 -7 -7 -5 -4 5 3 8 92 346 196 750 105 404 195 752 201
773 l10 37 1758 0 1759 0 -52 -200z"/>
</g>
</svg>
