<?xml version="1.0" standalone="no"?>
<!DOCTYPE svg PUBLIC "-//W3C//DTD SVG 20010904//EN"
 "http://www.w3.org/TR/2001/REC-SVG-20010904/DTD/svg10.dtd">
<svg version="1.0" xmlns="http://www.w3.org/2000/svg"
 width="520.000000pt" height="600.000000pt" viewBox="0 0 520.000000 600.000000"
 preserveAspectRatio="xMidYMid meet">

<g transform="translate(0.000000,600.000000) scale(0.100000,-0.100000)"
fill="#000000" stroke="none">
<path d="M1301 5247 l-1301 -752 0 -1506 0 -1507 1281 -741 c1137 -658 1286
-741 1323 -741 37 0 183 82 1296 726 690 400 1265 731 1278 737 l22 10 -2
1514 -3 1514 -1270 735 c-698 405 -1282 742 -1296 749 -26 14 -65 -8 -1328
-738z m2439 -210 l625 -362 3 -735 2 -735 -510 -295 -510 -295 -2 -595 -3
-594 -625 -363 c-344 -199 -632 -361 -641 -359 -9 2 -296 165 -637 362 l-622
359 0 735 0 735 127 74 c71 40 300 173 510 295 l383 221 2 594 3 594 625 363
c344 199 630 363 635 363 6 0 291 -163 635 -362z"/>
<path d="M2720 4617 l-385 -222 -3 -456 -2 -455 384 -222 c211 -122 387 -222
392 -222 5 0 182 100 394 223 l385 223 3 451 2 450 -386 224 c-213 123 -390
225 -393 227 -4 1 -180 -98 -391 -221z"/>
</g>
</svg>
