<?xml version="1.0" standalone="no"?>
<!DOCTYPE svg PUBLIC "-//W3C//DTD SVG 20010904//EN"
 "http://www.w3.org/TR/2001/REC-SVG-20010904/DTD/svg10.dtd">
<svg version="1.0" xmlns="http://www.w3.org/2000/svg"
 width="96.000000pt" height="96.000000pt" viewBox="0 0 96.000000 96.000000"
 preserveAspectRatio="xMidYMid meet">

<g transform="translate(0.000000,96.000000) scale(0.100000,-0.100000)"
fill="#000000" stroke="none">
<path d="M267 954 c-4 -4 -7 -22 -7 -40 0 -31 -2 -33 -37 -36 -52 -4 -52 -32
-1 -36 35 -3 37 -5 40 -40 2 -25 8 -37 18 -37 10 0 16 12 18 37 3 35 5 37 40
40 25 2 37 8 37 18 0 10 -12 16 -37 18 -34 3 -37 5 -40 39 -3 35 -17 51 -31
37z"/>
<path d="M267 714 c-4 -4 -7 -137 -7 -296 l0 -289 25 -25 c24 -24 29 -25 137
-22 93 2 113 6 113 18 0 12 -20 16 -104 18 -58 1 -111 8 -118 14 -9 7 -13 39
-13 102 l0 91 117 0 c98 0 118 3 118 15 0 12 -20 16 -104 18 -58 1 -111 8
-118 14 -9 7 -13 39 -13 102 l0 91 117 0 c98 0 118 3 118 15 0 12 -20 16 -104
18 -58 1 -110 7 -117 13 -7 6 -14 31 -16 57 -3 43 -15 61 -31 46z"/>
<path d="M592 668 c-7 -7 -12 -42 -12 -88 0 -46 5 -81 12 -88 7 -7 42 -12 88
-12 46 0 81 5 88 12 7 7 12 42 12 88 0 46 -5 81 -12 88 -7 7 -42 12 -88 12
-46 0 -81 -5 -88 -12z"/>
<path d="M592 428 c-16 -16 -16 -160 0 -176 16 -16 160 -16 176 0 7 7 12 42
12 88 0 46 -5 81 -12 88 -7 7 -42 12 -88 12 -46 0 -81 -5 -88 -12z"/>
<path d="M592 188 c-7 -7 -12 -42 -12 -88 0 -46 5 -81 12 -88 16 -16 160 -16
176 0 7 7 12 42 12 88 0 46 -5 81 -12 88 -16 16 -160 16 -176 0z"/>
</g>
</svg>
