<svg version="1.0" xmlns="http://www.w3.org/2000/svg" preserveAspectRatio="xMidYMid meet" viewBox="3.02 11.1 129.2 115.62">

<g transform="translate(0.000000,138.000000) scale(0.100000,-0.100000)" fill="#000000" stroke="none">
<path d="M355 1138 c-160 -71 -298 -137 -307 -145 -18 -17 -24 -59 -10 -80 6 -9 193 -103 206 -103 3 0 39 -16 83 -36 225 -103 326 -144 354 -144 16 0 87 27 159 60 72 33 133 60 135 60 2 0 39 16 82 36 43 20 114 52 158 71 100 43 105 47 105 92 0 46 1 45 -290 174 -118 52 -240 107 -270 121 -30 14 -68 25 -85 25 -16 0 -160 -59 -320 -131z m536 -97 c146 -64 196 -91 187 -98 -7 -6 -100 -49 -207 -96 l-193 -86 -202 89 c-110 49 -202 93 -204 98 -3 10 374 181 401 181 10 1 108 -39 218 -88z"/>
<path d="M47 732 c-22 -24 -22 -65 1 -85 9 -8 46 -29 82 -45 36 -16 85 -38 110 -49 103 -47 394 -175 416 -183 24 -10 66 6 264 97 56 26 210 93 264 116 16 7 52 23 80 37 47 23 51 28 54 65 4 44 -14 65 -57 65 -14 0 -147 -54 -296 -121 -205 -91 -277 -119 -300 -116 -25 4 -134 50 -315 134 -133 62 -237 103 -260 103 -15 0 -34 -8 -43 -18z"/>
<path d="M47 472 c-22 -24 -21 -65 1 -86 11 -9 129 -65 263 -125 134 -59 266 -118 293 -131 63 -28 96 -24 211 30 50 23 116 53 147 66 32 13 84 36 115 51 32 14 90 40 129 57 105 46 117 56 116 96 0 20 -8 40 -18 47 -36 26 -50 22 -374 -122 -58 -26 -137 -62 -177 -80 l-72 -34 -133 58 c-73 32 -200 88 -283 125 -159 70 -192 77 -218 48z"/>
</g>
</svg>