<svg version="1.0" xmlns="http://www.w3.org/2000/svg" preserveAspectRatio="xMidYMid meet" viewBox="8 18.08 172.95 155.73">

<g transform="translate(0.000000,192.000000) scale(0.100000,-0.100000)" fill="#000000" stroke="none">
<path d="M535 1566 c-411 -183 -455 -209 -455 -264 0 -40 29 -67 115 -104 39 -16 103 -45 143 -64 41 -19 75 -34 78 -34 3 0 37 -15 169 -75 33 -15 96 -43 140 -62 44 -20 104 -46 133 -59 60 -27 115 -31 158 -10 16 8 49 23 74 34 25 11 66 29 93 41 26 11 68 31 95 42 26 12 66 30 90 40 23 11 61 27 85 38 23 10 63 28 90 40 26 11 68 30 95 42 160 71 180 89 168 152 -9 45 -13 48 -188 126 -27 11 -68 30 -93 41 -25 11 -66 30 -92 41 -27 12 -66 29 -88 39 -22 10 -62 28 -90 40 -27 12 -70 31 -95 42 -25 11 -63 28 -85 38 -83 37 -118 50 -134 49 -9 0 -191 -78 -406 -173z"/>
<path d="M101 1014 c-40 -51 -17 -117 51 -144 18 -8 65 -28 103 -45 39 -18 124 -56 190 -85 66 -29 144 -63 173 -76 29 -13 54 -24 56 -24 2 0 44 -18 93 -41 48 -22 102 -47 120 -55 57 -26 79 -20 283 74 25 12 169 75 320 142 172 75 283 130 298 146 47 53 12 134 -58 134 -35 0 -154 -47 -350 -137 -241 -111 -433 -191 -448 -186 -9 3 -178 77 -375 165 -390 173 -418 181 -456 132z"/>
<path d="M109 671 c-35 -35 -38 -77 -8 -110 19 -20 41 -32 172 -90 26 -11 68 -31 95 -42 26 -12 67 -30 92 -41 25 -11 65 -29 90 -40 25 -11 64 -29 88 -39 23 -11 62 -28 87 -39 25 -11 66 -29 93 -41 26 -11 60 -27 76 -35 52 -25 35 -32 536 193 25 11 113 51 197 88 84 37 157 73 163 80 6 7 14 29 17 49 5 30 1 40 -25 66 -33 33 -63 38 -108 16 -16 -8 -184 -82 -373 -166 -255 -113 -350 -151 -370 -147 -14 3 -60 21 -101 40 -41 19 -111 51 -155 70 -44 19 -105 46 -135 60 -52 23 -93 42 -200 89 -25 11 -69 31 -98 44 -69 32 -97 30 -133 -5z"/>
</g>
</svg>