<?xml version="1.0" encoding="utf-8"?>
<svg xmlns="http://www.w3.org/2000/svg" width="100%" height="100%" viewBox="0 0 64 64" version="1.1" style="fill-rule:evenodd;clip-rule:evenodd;stroke-linejoin:round;stroke-miterlimit:2;">
  <g>
    <g transform="matrix(0.97561,0,0,1,-7.5122,-6)">
      <path d="M40.5,7C28.068,7 17.95,17.068 17.95,29.5C17.95,33.193 19.873,37.688 22.684,42.128C28.835,51.845 39.081,61.443 39.081,61.443C39.874,62.186 41.126,62.186 41.919,61.443C41.919,61.443 52.165,51.845 58.316,42.128C61.127,37.688 63.05,33.193 63.05,29.5C63.05,17.068 52.932,7 40.5,7ZM40.5,11C50.697,11 58.95,19.303 58.95,29.5C58.95,33.703 55.778,39.019 52.123,43.952C47.895,49.659 42.896,54.811 40.5,57.181C38.104,54.811 33.105,49.659 28.877,43.952C25.222,39.019 22.05,33.703 22.05,29.5C22.05,19.303 30.303,11 40.5,11Z"/>
    </g>
    <g transform="matrix(1.17647,0,0,1.17647,-7.41176,-2.29412)">
      <path d="M33.5,11.3C30.685,11.3 28.135,12.442 26.289,14.289C24.442,16.135 23.3,18.685 23.3,21.5C23.3,27.13 27.87,31.7 33.5,31.7C39.13,31.7 43.7,27.13 43.7,21.5C43.7,15.87 39.13,11.3 33.5,11.3ZM33.5,14.7C37.253,14.7 40.3,17.747 40.3,21.5C40.3,25.253 37.253,28.3 33.5,28.3C29.747,28.3 26.7,25.253 26.7,21.5C26.7,19.624 27.462,17.924 28.693,16.693C29.924,15.462 31.624,14.7 33.5,14.7Z"/>
    </g>
    <g transform="matrix(1.03571,0,0,1.08333,-1.14286,-5.08333)"/>
  </g>
</svg>