<?xml version="1.0" encoding="utf-8"?>
<svg xmlns="http://www.w3.org/2000/svg" width="100%" height="100%" viewBox="0 0 64 64" version="1.1" style="fill-rule:evenodd;clip-rule:evenodd;stroke-linejoin:round;stroke-miterlimit:2;">
  <g>
    <path d="M 32 1 C 19.871 1 10 11.068 10 23.5 C 10 27.193 11.876 31.688 14.619 36.128 C 20.62 45.845 30.616 55.443 30.616 55.443 C 31.389 56.186 32.611 56.186 33.384 55.443 C 33.384 55.443 43.38 45.845 49.381 36.128 C 52.124 31.688 54 27.193 54 23.5 C 54 11.068 44.129 1 32 1 Z" style="stroke-width: 0.988px;"/>
    <g transform="matrix(1.03571,0,0,1.08333,-1.14286,-5.08333)">
      <path d="M57.916,54.594C57.834,54.679 57.734,54.774 57.644,54.842C57.239,55.146 56.704,55.435 56.062,55.719C51.553,57.713 42.461,59.154 32,59.154C21.539,59.154 12.447,57.713 7.938,55.719C7.296,55.435 6.761,55.146 6.356,54.842C6.266,54.774 6.166,54.679 6.084,54.594C6.313,54.432 6.706,54.171 7.071,54.012C9.15,53.104 12.625,52.413 16.978,51.802C18.033,51.654 18.764,50.716 18.609,49.708C18.454,48.7 17.473,48.001 16.418,48.149C10.703,48.95 6.363,49.992 4.261,51.271C2.712,52.213 2.069,53.38 2.069,54.538C2.069,55.33 2.367,56.142 3.054,56.914C3.708,57.649 4.801,58.4 6.317,59.07C11.132,61.2 20.826,62.846 32,62.846C43.174,62.846 52.868,61.2 57.683,59.07C59.199,58.4 60.292,57.649 60.946,56.914C61.633,56.142 61.931,55.33 61.931,54.538C61.931,53.385 61.295,52.226 59.763,51.287C57.69,50.017 53.41,48.979 47.762,48.174C46.708,48.024 45.724,48.72 45.567,49.728C45.41,50.736 46.138,51.676 47.192,51.826C51.487,52.438 54.911,53.125 56.957,54.027C57.31,54.182 57.691,54.435 57.916,54.594Z"/>
    </g>
  </g>
  <ellipse style="stroke: rgb(255, 255, 255); fill: none; stroke-width: 9px;" cx="32" cy="23.047" rx="9.617" ry="9.957"/>
</svg>