<?xml version="1.0" encoding="utf-8"?>
<svg xmlns="http://www.w3.org/2000/svg" viewBox="0 0 640 640">
  <path d="M 576.671 35.831 C 550.396 9.555 507.924 9.555 481.647 35.831 L 452.372 65.107 L 569.832 182.565 L 599.106 153.291 C 625.382 127.015 625.382 84.543 599.106 58.267 L 576.671 35.831 Z M 217.694 299.785 C 210.375 307.103 204.736 316.102 201.495 326.06 L 165.982 432.602 C 162.504 442.921 165.263 454.318 172.941 462.117 C 180.62 469.916 192.018 472.555 202.455 469.075 L 308.998 433.561 C 318.836 430.322 327.834 424.683 335.273 417.364 L 529.159 223.238 L 411.7 105.778 L 217.694 299.785 Z M 126.029 86.582 C 62.441 86.582 10.849 138.172 10.849 201.762 L 10.849 508.909 C 10.849 572.498 62.441 624.088 126.029 624.088 L 433.176 624.088 C 496.765 624.088 548.355 572.498 548.355 508.909 L 548.355 393.729 C 548.355 372.492 531.198 355.336 509.963 355.336 C 488.726 355.336 471.569 372.492 471.569 393.729 L 471.569 508.909 C 471.569 530.145 454.412 547.302 433.176 547.302 L 126.029 547.302 C 104.792 547.302 87.635 530.145 87.635 508.909 L 87.635 201.762 C 87.635 180.526 104.792 163.369 126.029 163.369 L 241.209 163.369 C 262.446 163.369 279.603 146.212 279.603 124.976 C 279.603 103.739 262.446 86.582 241.209 86.582 L 126.029 86.582 Z" style=""/>
</svg>