<?xml version="1.0" standalone="no"?>
<!DOCTYPE svg PUBLIC "-//W3C//DTD SVG 20010904//EN"
 "http://www.w3.org/TR/2001/REC-SVG-20010904/DTD/svg10.dtd">
<svg version="1.0" xmlns="http://www.w3.org/2000/svg"
 width="200.000000pt" height="200.000000pt" viewBox="0 0 200.000000 200.000000"
 preserveAspectRatio="xMidYMid meet">

<g transform="translate(0.000000,200.000000) scale(0.100000,-0.100000)"
fill="#000000" stroke="none">
<path d="M288 1940 c-44 -13 -84 -47 -103 -85 -15 -33 -17 -105 -17 -865 0
-931 -4 -876 75 -928 l41 -27 716 0 716 0 41 27 c79 52 75 -3 75 928 0 931 4
876 -75 928 l-41 27 -700 2 c-386 1 -713 -2 -728 -7z m234 -237 c17 -15 18
-38 18 -301 0 -252 -2 -288 -17 -304 -20 -22 -61 -23 -85 -1 -17 15 -18 38
-18 301 0 252 2 288 17 304 20 22 61 23 85 1z m436 2 c49 -21 81 -52 103 -100
16 -34 19 -66 19 -206 0 -155 -2 -169 -23 -210 -78 -147 -300 -144 -368 6 -16
33 -19 67 -19 203 0 173 8 211 53 261 52 56 159 77 235 46z m500 0 c49 -21 81
-52 103 -100 16 -34 19 -66 19 -206 0 -155 -2 -169 -23 -210 -78 -147 -300
-144 -368 6 -16 33 -19 67 -19 203 0 173 8 211 53 261 52 56 159 77 235 46z
m-770 -810 c49 -21 81 -52 103 -100 16 -34 19 -66 19 -215 0 -148 -3 -181 -19
-215 -68 -150 -290 -153 -368 -6 -22 41 -23 55 -23 218 0 185 7 222 53 272 52
56 159 77 235 46z m500 0 c49 -21 81 -52 103 -100 16 -34 19 -66 19 -215 0
-148 -3 -181 -19 -215 -68 -150 -290 -153 -368 -6 -22 41 -23 55 -23 218 0
185 7 222 53 272 52 56 159 77 235 46z m354 -2 c17 -15 18 -38 18 -311 0 -261
-2 -298 -17 -314 -20 -22 -61 -23 -85 -1 -17 15 -18 38 -18 311 0 261 2 298
17 314 20 22 61 23 85 1z"/>
<path d="M819 1591 l-29 -29 0 -162 0 -162 29 -29 c18 -17 40 -29 56 -29 16 0
38 12 56 29 l29 29 0 162 0 162 -29 29 c-18 17 -40 29 -56 29 -16 0 -38 -12
-56 -29z"/>
<path d="M1319 1591 l-29 -29 0 -162 0 -162 29 -29 c18 -17 40 -29 56 -29 16
0 38 12 56 29 l29 29 0 162 0 162 -29 29 c-18 17 -40 29 -56 29 -16 0 -38 -12
-56 -29z"/>
<path d="M549 761 l-29 -29 0 -152 0 -152 29 -29 c38 -38 74 -38 112 0 l29 29
0 152 0 152 -29 29 c-38 38 -74 38 -112 0z"/>
<path d="M1049 761 l-29 -29 0 -152 0 -152 29 -29 c38 -38 74 -38 112 0 l29
29 0 152 0 152 -29 29 c-38 38 -74 38 -112 0z"/>
</g>
</svg>
